<?xml version="1.0" standalone="no"?>
<!DOCTYPE svg PUBLIC "-//W3C//DTD SVG 20010904//EN"
 "http://www.w3.org/TR/2001/REC-SVG-20010904/DTD/svg10.dtd">
<svg version="1.0" xmlns="http://www.w3.org/2000/svg"
 width="512.000000pt" height="512.000000pt" viewBox="0 0 512.000000 512.000000"
 preserveAspectRatio="xMidYMid meet">
<metadata>
Created by potrace 1.16, written by Peter Selinger 2001-2019
</metadata>
<g transform="translate(0.000000,512.000000) scale(0.100000,-0.100000)"
fill="#F28F3B" stroke="none">
<path d="M2500 5090 c0 -28 -2 -30 -41 -30 -60 0 -231 -37 -334 -72 -469 -160
-824 -543 -954 -1028 -96 -362 -25 -751 200 -1088 92 -139 187 -245 298 -332
l82 -64 -3 -54 -3 -53 -95 -38 c-715 -288 -1272 -894 -1493 -1626 -42 -140
-83 -337 -93 -447 -7 -78 -7 -78 -35 -78 l-29 0 0 -90 0 -90 174 0 173 0 7 61
c3 34 6 89 6 122 0 81 25 250 56 376 97 392 284 723 573 1012 289 289 620 476
1012 573 145 35 286 53 479 61 305 12 481 54 703 167 391 200 678 574 772
1008 22 104 30 318 16 421 -46 320 -198 617 -433 845 -168 163 -339 269 -553
342 -103 35 -274 72 -334 72 -39 0 -41 2 -41 30 0 30 -1 30 -55 30 -54 0 -55
0 -55 -30z m272 -345 c341 -59 615 -255 777 -555 74 -137 106 -250 123 -427
55 -595 -261 -1065 -822 -1220 -95 -26 -495 -26 -590 0 -278 77 -498 231 -645
452 -146 218 -204 473 -177 768 17 177 49 290 123 427 161 297 434 494 771
555 101 18 336 18 440 0z"/>
<path d="M3930 1620 l0 -420 -420 0 -420 0 0 -155 0 -155 420 0 420 0 0 -445
0 -445 155 0 155 0 0 445 0 445 440 0 440 0 0 155 0 155 -440 0 -440 0 0 420
0 420 -155 0 -155 0 0 -420z"/>
</g>
</svg>
