<?xml version="1.0" standalone="no"?>
<!DOCTYPE svg PUBLIC "-//W3C//DTD SVG 20010904//EN"
 "http://www.w3.org/TR/2001/REC-SVG-20010904/DTD/svg10.dtd">
<svg version="1.0" xmlns="http://www.w3.org/2000/svg"
 width="512.000000pt" height="512.000000pt" viewBox="0 0 512.000000 512.000000"
 preserveAspectRatio="xMidYMid meet">
<metadata>
Created by potrace 1.16, written by Peter Selinger 2001-2019
</metadata>
<g transform="translate(0.000000,512.000000) scale(0.100000,-0.100000)"
fill="#ff0000" stroke="none">
<path d="M1813 5100 c-134 -48 -237 -152 -284 -288 -15 -42 -19 -83 -19 -174
l0 -118 -418 0 c-389 0 -423 -1 -475 -19 -104 -36 -189 -105 -251 -204 -82
-132 -74 -348 19 -485 41 -60 131 -135 190 -158 l40 -15 134 -1613 c73 -888
137 -1636 142 -1662 29 -159 158 -301 318 -350 69 -21 2633 -21 2702 0 73 22
122 51 183 106 62 58 120 161 135 243 5 27 69 775 142 1662 l134 1614 40 15
c59 23 149 98 190 158 93 137 101 353 19 485 -62 99 -147 168 -251 204 -52 18
-86 19 -475 19 l-418 0 0 118 c0 91 -4 132 -19 174 -47 138 -151 242 -288 289
-54 18 -88 19 -747 18 -647 0 -694 -2 -743 -19z m1415 -305 c56 -34 74 -75 80
-181 l5 -94 -753 0 -753 0 5 94 c7 127 37 176 123 197 17 4 307 7 645 6 596
-2 616 -3 648 -22z m1202 -602 c46 -28 70 -71 70 -123 0 -52 -24 -95 -70 -123
l-35 -22 -1835 0 c-1817 0 -1835 0 -1868 20 -114 69 -88 234 42 266 17 4 848
6 1846 6 l1815 -2 35 -22z m-240 -580 c0 -5 -59 -723 -131 -1598 -104 -1260
-134 -1597 -147 -1624 -21 -43 -56 -69 -108 -81 -52 -12 -2436 -12 -2488 0
-52 12 -87 38 -108 81 -13 27 -43 364 -147 1624 -72 875 -131 1593 -131 1598
0 4 734 7 1630 7 897 0 1630 -3 1630 -7z"/>
<path d="M1576 3301 c-52 -34 -66 -68 -66 -156 0 -44 34 -612 74 -1262 81
-1298 72 -1220 142 -1264 45 -27 128 -26 170 3 51 35 64 66 64 155 0 43 -34
610 -74 1261 -72 1160 -74 1183 -97 1216 -13 19 -35 41 -50 50 -38 23 -126 21
-163 -3z"/>
<path d="M2476 3301 c-15 -10 -37 -32 -47 -47 -18 -28 -19 -72 -19 -1294 0
-1222 1 -1266 19 -1294 31 -46 69 -66 131 -66 62 0 100 20 131 66 18 28 19 72
19 1294 0 1222 -1 1266 -19 1294 -31 46 -69 66 -131 66 -37 0 -64 -6 -84 -19z"/>
<path d="M3376 3301 c-70 -46 -61 37 -142 -1264 -40 -650 -74 -1218 -74 -1262
0 -88 14 -122 66 -156 39 -26 126 -26 168 0 70 44 61 -34 142 1264 40 650 74
1218 74 1262 0 88 -14 122 -66 156 -40 26 -129 26 -168 0z"/>
</g>
</svg>
