<?xml version="1.0" standalone="no"?>
<!DOCTYPE svg PUBLIC "-//W3C//DTD SVG 20010904//EN"
 "http://www.w3.org/TR/2001/REC-SVG-20010904/DTD/svg10.dtd">
<svg version="1.0" xmlns="http://www.w3.org/2000/svg"
 width="512.000000pt" height="512.000000pt" viewBox="0 0 512.000000 512.000000"
 preserveAspectRatio="xMidYMid meet">
<metadata>
Created by potrace 1.16, written by Peter Selinger 2001-2019
</metadata>
<g transform="translate(0.000000,512.000000) scale(0.100000,-0.100000)"
fill="#ffffff" stroke="none">
<path d="M3460 4645 l0 -215 -215 0 -215 0 0 -165 0 -165 215 0 215 0 0 -215
0 -215 165 0 165 0 0 215 0 215 215 0 215 0 0 165 0 165 -215 0 -215 0 0 215
0 215 -165 0 -165 0 0 -215z"/>
<path d="M1380 4414 c-177 -46 -336 -176 -415 -339 -69 -142 -65 -18 -65
-1926 l0 -1726 23 -43 c30 -57 84 -100 134 -107 38 -5 58 8 634 391 l595 396
60 0 60 0 588 -390 c324 -215 599 -393 612 -396 13 -3 35 -3 49 0 35 9 105 74
122 113 11 27 13 293 13 1508 l0 1475 -165 0 -165 0 0 -1290 0 -1290 -53 0
-53 0 -469 316 c-258 174 -483 323 -501 331 -25 12 -39 13 -63 5 -17 -6 -244
-155 -505 -331 l-475 -321 -56 0 -55 0 2 1573 c3 1507 4 1574 22 1609 24 50
86 104 133 117 25 7 261 11 691 11 l652 0 0 165 0 165 -647 -1 c-531 0 -658
-3 -703 -15z"/>
</g>
</svg>
