<?xml version="1.0" standalone="no"?>
<!DOCTYPE svg PUBLIC "-//W3C//DTD SVG 20010904//EN"
 "http://www.w3.org/TR/2001/REC-SVG-20010904/DTD/svg10.dtd">
<svg version="1.0" xmlns="http://www.w3.org/2000/svg"
 width="512.000000pt" height="512.000000pt" viewBox="0 0 512.000000 512.000000"
 preserveAspectRatio="xMidYMid meet">
<metadata>
Created by potrace 1.16, written by Peter Selinger 2001-2019
</metadata>
<g transform="translate(0.000000,512.000000) scale(0.100000,-0.100000)"
fill="#ffffff" stroke="none">
<path d="M1290 5091 c0 -25 -4 -30 -37 -35 -21 -4 -75 -25 -120 -48 -230 -112
-374 -384 -318 -597 44 -170 162 -317 314 -390 45 -22 99 -42 121 -46 l40 -7
0 -54 0 -54 -298 0 c-343 0 -392 -7 -542 -82 -69 -34 -103 -60 -180 -138 -78
-77 -104 -111 -138 -180 -23 -47 -50 -118 -60 -157 -16 -69 -19 -73 -44 -73
l-28 0 0 -510 0 -510 29 0 c25 0 30 -5 41 -44 28 -100 128 -214 232 -264 79
-38 131 -47 196 -34 32 7 79 12 105 12 l47 0 0 -733 c0 -701 1 -736 19 -790
47 -136 162 -250 289 -288 37 -11 42 -16 42 -41 0 -27 2 -28 50 -28 48 0 50 1
50 29 0 25 5 30 47 41 25 8 68 28 96 47 41 28 58 33 107 33 49 0 66 -5 107
-33 28 -19 71 -39 96 -47 42 -11 47 -16 47 -41 0 -28 2 -29 50 -29 48 0 50 1
50 28 0 25 5 30 43 41 126 38 241 152 288 288 18 54 19 92 19 1090 l0 1033 49
0 c27 0 72 -5 100 -12 82 -18 137 1 443 153 l279 139 893 0 c859 0 895 1 949
19 136 47 250 162 288 289 11 37 16 42 41 42 l28 0 0 805 0 805 -29 0 c-25 0
-30 5 -41 44 -34 121 -163 250 -287 287 -38 11 -43 16 -43 41 l0 28 -1110 0
-1110 0 0 -28 c0 -25 -5 -30 -42 -41 -127 -38 -242 -152 -289 -288 -18 -53
-19 -87 -19 -605 l0 -548 -53 0 c-52 0 -53 1 -122 71 -84 84 -155 133 -232
160 -45 15 -83 19 -195 19 l-138 0 0 54 0 54 40 7 c22 4 76 24 121 46 152 73
270 220 314 390 56 213 -88 485 -318 597 -45 23 -99 44 -119 48 -34 5 -38 10
-38 35 0 29 -1 29 -60 29 -59 0 -60 0 -60 -29z m3500 -248 c19 -12 44 -37 55
-55 20 -32 20 -51 20 -873 0 -822 0 -841 -20 -873 -11 -18 -36 -43 -55 -55
l-35 -22 -763 -3 -764 -3 6 68 c3 37 9 105 12 151 l6 83 428 214 c379 190 431
219 450 250 l22 35 -20 33 c-12 17 -34 40 -51 50 l-30 18 -420 -211 c-485
-242 -471 -238 -568 -170 -31 23 -88 50 -126 61 -102 31 -145 23 -327 -67
-132 -64 -159 -74 -206 -74 l-55 0 3 678 3 677 22 35 c24 39 53 60 98 71 17 4
536 6 1155 6 l1125 -2 35 -22z m-3275 -7 c63 -29 138 -111 159 -173 11 -32 16
-82 16 -158 0 -105 -2 -116 -31 -173 -34 -69 -71 -104 -144 -138 -43 -21 -65
-24 -165 -24 -100 0 -122 3 -165 24 -73 34 -110 69 -144 138 -29 57 -31 68
-31 173 0 137 15 186 78 256 72 80 122 99 262 99 100 0 122 -3 165 -24z m245
-1195 c14 -7 138 -125 276 -262 138 -137 258 -249 267 -249 10 0 116 50 237
110 l220 110 90 0 c155 0 190 -35 190 -190 0 -147 18 -131 -370 -325 l-330
-165 -93 0 c-106 0 -108 1 -209 97 -36 34 -75 63 -86 63 -23 0 -67 -33 -85
-63 -9 -17 -13 -289 -17 -1212 -5 -1168 -5 -1191 -25 -1223 -35 -58 -70 -72
-175 -72 -105 0 -140 14 -175 72 -19 32 -20 55 -25 838 -5 885 -1 830 -67 871
l-33 21 -32 -21 c-67 -41 -63 14 -68 -871 -5 -783 -6 -806 -25 -838 -35 -58
-70 -72 -175 -72 -105 0 -140 14 -175 72 -20 32 -20 55 -25 1438 -6 1547 0
1429 -67 1471 l-33 21 -32 -21 c-65 -40 -63 -17 -68 -566 -5 -477 -6 -501 -25
-533 -35 -58 -70 -72 -175 -72 -105 0 -140 14 -175 72 -19 32 -20 54 -23 528
-3 517 2 608 37 702 56 147 196 255 361 278 30 4 287 7 570 6 415 -1 520 -4
540 -15z"/>
</g>
</svg>
