<?xml version="1.0" standalone="no"?>
<!DOCTYPE svg PUBLIC "-//W3C//DTD SVG 20010904//EN"
 "http://www.w3.org/TR/2001/REC-SVG-20010904/DTD/svg10.dtd">
<svg version="1.0" xmlns="http://www.w3.org/2000/svg"
 width="512.000000pt" height="512.000000pt" viewBox="0 0 512.000000 512.000000"
 preserveAspectRatio="xMidYMid meet">
<metadata>
Created by potrace 1.16, written by Peter Selinger 2001-2019
</metadata>
<g transform="translate(0.000000,512.000000) scale(0.100000,-0.100000)"
fill="#808080" stroke="none">
<path d="M3904 5101 c-89 -24 -171 -65 -249 -124 -33 -25 -792 -778 -1687
-1674 l-1627 -1628 -172 -832 c-95 -458 -169 -836 -166 -840 4 -4 382 71 840
166 l832 172 1628 1627 c896 895 1649 1654 1674 1687 107 141 148 276 141 468
-6 136 -29 222 -90 325 -45 78 -502 535 -580 580 -109 64 -188 85 -338 88
-110 3 -148 0 -206 -15z m351 -325 c49 -24 100 -69 276 -245 264 -264 274
-280 274 -441 0 -98 -2 -110 -32 -170 -24 -49 -59 -92 -143 -175 l-110 -110
-442 443 -443 442 100 101 c117 117 139 134 214 166 48 20 69 23 151 21 81 -3
105 -8 155 -32z m-52 -1458 l-98 -98 -442 442 -443 443 97 97 98 98 442 -442
443 -443 -97 -97z m-1035 399 l162 -162 -1128 -1128 -1127 -1127 -165 165
-165 165 1125 1125 c619 619 1127 1125 1130 1125 3 0 78 -73 168 -163z m-410
-1844 l-1128 -1128 -165 165 -165 165 1127 1127 1128 1128 165 -165 165 -165
-1127 -1127z m-1440 -1285 c-13 -4 -210 -46 -438 -93 -228 -48 -432 -90 -452
-94 -26 -6 -35 -5 -33 3 3 6 45 209 95 451 50 242 94 451 97 464 5 21 47 -18
379 -350 335 -335 372 -375 352 -381z"/>
</g>
</svg>
