<svg width="27" height="27" viewBox="0 0 27 27" fill="none" xmlns="http://www.w3.org/2000/svg">
<g clip-path="url(#clip0_160_76)">
<path d="M13.4907 17.5983C13.9278 17.5983 14.2819 17.244 14.2819 16.8071V15.8379C14.2819 15.401 13.9278 15.0469 13.4907 15.0469C13.0538 15.0469 12.6997 15.401 12.6997 15.8379V16.8071C12.6997 17.244 13.0538 17.5983 13.4907 17.5983Z" fill="#F28F3B"/>
<path d="M1.93406 10.1974C2.08876 10.3523 2.29146 10.4298 2.49416 10.4298C2.69644 10.4298 2.89852 10.3527 3.05302 10.1986C3.36222 9.89005 3.36283 9.38907 3.05425 9.07967L1.36593 7.38764C1.05735 7.07844 0.556373 7.07761 0.247177 7.3864C-0.0620198 7.69498 -0.0626378 8.19595 0.245941 8.50536L1.93406 10.1974Z" fill="#F28F3B"/>
<path d="M24.4706 10.4351C24.6774 10.4351 24.884 10.3546 25.0394 10.1941L26.7223 8.45448C27.0262 8.14055 27.0179 7.63978 26.7038 7.33594C26.3899 7.0319 25.8889 7.04034 25.585 7.35448L23.9021 9.09389C23.5982 9.40803 23.6067 9.9088 23.9206 10.2126C24.0743 10.3612 24.2724 10.4351 24.4706 10.4351Z" fill="#F28F3B"/>
<path d="M13.4907 6.26551C13.9278 6.26551 14.2819 5.9112 14.2819 5.47428V3.11153C14.2819 2.67462 13.9278 2.32031 13.4907 2.32031C13.0538 2.32031 12.6997 2.67462 12.6997 3.11153V5.47428C12.6997 5.9112 13.0538 6.26551 13.4907 6.26551Z" fill="#F28F3B"/>
<path d="M26.8892 16.8025C27.0533 16.5265 27.0307 16.1709 26.8362 15.9157C26.7231 15.7661 25.2894 13.8916 22.9899 11.996C21.6029 10.853 20.1869 9.94021 18.7814 9.28288C16.9938 8.44717 15.2165 8.02344 13.4987 8.02344C11.7807 8.02344 10.0034 8.44717 8.21581 9.28288C6.8101 9.94021 5.39431 10.853 4.00735 11.996C1.66129 13.9299 0.215208 15.8432 0.154852 15.9237C-0.0534077 16.2014 -0.0534077 16.5959 0.154852 16.8736C0.215208 16.9539 1.66129 18.8674 4.00735 20.8012C5.39431 21.9443 6.8101 22.8571 8.21581 23.5144C10.0034 24.3501 11.7807 24.7738 13.4987 24.7738C15.2165 24.7738 16.9938 24.3501 18.7814 23.5144C20.1869 22.8571 21.6029 21.9443 22.9899 20.8012C25.336 18.8674 26.782 16.9541 26.8424 16.8736C26.8593 16.8509 26.8747 16.8268 26.8892 16.8025ZM5.04165 13.1943C7.03402 11.5571 10.1186 9.60568 13.4985 9.60568C16.8787 9.60568 19.9632 11.5571 21.9556 13.1943C23.3893 14.3724 24.4817 15.5634 25.0756 16.2595C24.713 16.4541 24.3375 16.526 23.9404 16.477C23.3094 16.3987 22.7765 16.0347 22.5007 15.8102C21.9723 15.2895 21.4262 14.7992 20.877 14.3524C17.6617 11.7369 15.0898 11.1879 13.4987 11.1879C10.6156 11.1879 7.89487 12.9088 6.12023 14.3524C5.56425 14.8048 5.01137 15.3016 4.47702 15.8298C3.93422 16.3413 3.37145 16.5526 2.75759 16.477C2.4624 16.4403 2.18904 16.3411 1.95297 16.2228C2.55345 15.5222 3.63265 14.352 5.04165 13.1943ZM13.4977 12.8593C15.4435 12.8593 17.0266 14.4467 17.0266 16.3979C17.0266 18.3493 15.4435 19.9367 13.4977 19.9367C11.5519 19.9367 9.96882 18.3493 9.96882 16.3979C9.96882 14.4467 11.5519 12.8593 13.4977 12.8593ZM13.4987 23.1916C10.1186 23.1916 7.03402 21.24 5.04165 19.603C4.39874 19.0748 3.82484 18.544 3.33334 18.0564C4.1363 17.9758 4.89869 17.6094 5.57085 16.973C5.57497 16.9691 5.57908 16.9652 5.583 16.9611C6.08336 16.4665 6.59999 16.0018 7.11868 15.5799C7.6108 15.1795 8.18223 14.7551 8.80907 14.3606C8.53757 14.9852 8.38658 15.6743 8.38658 16.3979C8.38658 19.2217 10.6795 21.5189 13.4977 21.5189C16.3161 21.5189 18.6088 19.2217 18.6088 16.3979C18.6088 15.673 18.4574 14.9831 18.1853 14.3575C18.7199 14.6939 19.2847 15.0966 19.8788 15.5799C20.3975 16.0018 20.9141 16.4665 21.4143 16.9611C21.4307 16.9774 21.4478 16.9928 21.4655 17.0077C21.9443 17.4046 22.7135 17.8998 23.68 18.0372C21.5185 20.1833 17.7333 23.1916 13.4987 23.1916Z" fill="#F28F3B"/>
</g>
<defs>
<clipPath id="clip0_160_76">
<rect width="27" height="27" fill="white"/>
</clipPath>
</defs>
</svg>
