<svg width="28" height="28" viewBox="0 0 28 28" fill="none" xmlns="http://www.w3.org/2000/svg">
<path d="M2.80547 1.39453C2.25859 1.56406 1.76641 2.00703 1.4875 2.57031L1.33984 2.87109V14V25.1289L1.49844 25.457C1.70625 25.8781 2.12187 26.2938 2.54297 26.5016L2.87109 26.6602H9.625H16.3789L16.707 26.5016C17.1281 26.2938 17.5437 25.8781 17.7516 25.457L17.9102 25.1289L17.9266 23.8164C17.9484 22.3398 17.9266 22.2031 17.6203 21.8641C17.3469 21.5578 17.0625 21.4375 16.625 21.4375C16.2039 21.4375 15.9141 21.5578 15.657 21.8258C15.3562 22.143 15.3125 22.3234 15.3125 23.2422V24.0625H9.625H3.9375V14V3.9375H9.625H15.3125V4.75781C15.3125 5.67656 15.3562 5.85703 15.657 6.17422C15.9141 6.44219 16.2039 6.5625 16.625 6.5625C17.0625 6.5625 17.3469 6.44219 17.6203 6.13594C17.9266 5.79688 17.9484 5.66016 17.9266 4.18359L17.9102 2.87109L17.7516 2.54297C17.5437 2.12188 17.1281 1.70625 16.707 1.49844L16.3789 1.33984L9.70703 1.32891C4.27656 1.32344 2.99141 1.33438 2.80547 1.39453Z" fill="#808080"/>
<path d="M19.9609 7.78193C19.693 7.86943 19.2336 8.33975 19.1516 8.61865C19.0695 8.90303 19.0695 9.19287 19.1516 9.48272C19.2063 9.66865 19.4633 9.9585 20.6937 11.1944L22.1703 12.6874H14.8477C7.82578 12.6874 7.50859 12.6929 7.30078 12.7913C6.83047 13.0101 6.5625 13.4476 6.5625 13.9999C6.5625 14.5522 6.83047 14.9897 7.30078 15.2085C7.50859 15.3069 7.82578 15.3124 14.8477 15.3124H22.1703L20.6937 16.7999C19.1242 18.3858 19.0859 18.4351 19.0859 18.9491C19.0859 19.321 19.2063 19.589 19.4961 19.8788C19.7859 20.1687 20.0539 20.289 20.4258 20.289C20.9672 20.289 20.8961 20.3491 23.7836 17.478C25.6047 15.6624 26.5125 14.7218 26.5836 14.5741C26.6492 14.4319 26.6875 14.2351 26.6875 13.9999C26.6875 13.7647 26.6492 13.5679 26.5836 13.4257C26.5125 13.278 25.6047 12.3374 23.7836 10.5218C21.4758 8.23037 21.0492 7.83115 20.8578 7.77647C20.5844 7.6999 20.218 7.6999 19.9609 7.78193Z" fill="#808080"/>
</svg>
