<?xml version="1.0" standalone="no"?>
<!DOCTYPE svg PUBLIC "-//W3C//DTD SVG 20010904//EN"
 "http://www.w3.org/TR/2001/REC-SVG-20010904/DTD/svg10.dtd">
<svg version="1.0" xmlns="http://www.w3.org/2000/svg"
 width="786.000000pt" height="264.000000pt" viewBox="0 0 786.000000 264.000000"
 preserveAspectRatio="xMidYMid meet">
<metadata>
Created by potrace 1.16, written by Peter Selinger 2001-2019
</metadata>
<g transform="translate(0.000000,264.000000) scale(0.100000,-0.100000)"
fill="#ffffff" stroke="none">
<path d="M584 2302 c-303 -174 -558 -323 -567 -331 -16 -12 -17 -71 -17 -656
0 -599 1 -643 18 -657 9 -9 266 -158 569 -332 502 -288 555 -316 575 -305 25
13 649 371 928 532 96 56 178 106 182 112 10 13 10 1287 0 1301 -8 11 -1119
654 -1130 654 -4 0 -255 -143 -558 -318z m742 85 c98 -57 307 -177 464 -267
157 -90 291 -169 298 -175 11 -10 -16 -29 -136 -99 l-150 -87 -104 104 c-89
89 -116 109 -198 150 -120 59 -189 78 -319 84 -245 13 -454 -74 -625 -259
l-74 -81 -151 88 c-83 49 -148 91 -145 94 8 8 948 551 955 551 3 0 86 -46 185
-103z m-30 -417 c125 -31 217 -83 312 -175 45 -44 82 -85 82 -90 0 -6 -19 -21
-43 -34 -23 -13 -146 -84 -273 -157 l-232 -134 -263 151 c-145 83 -270 157
-277 164 -11 10 -4 23 39 69 170 186 421 265 655 206z m-1016 -224 c82 -48
144 -90 143 -98 -1 -7 -13 -45 -27 -84 -133 -369 54 -800 418 -964 124 -56
169 -65 331 -65 142 0 155 2 236 31 121 43 209 95 291 172 243 230 319 544
206 859 -12 34 -20 64 -18 66 10 8 270 157 285 163 14 6 15 -49 13 -551 l-3
-556 -475 -274 -475 -274 -3 120 -3 119 -59 0 -59 0 -3 -119 -3 -119 -477 275
-478 276 0 553 c0 305 3 554 8 554 4 0 73 -38 152 -84z m548 -316 l252 -144 0
-323 c0 -178 -3 -323 -7 -323 -43 1 -162 38 -232 71 -112 54 -237 176 -294
286 -90 173 -102 399 -32 566 15 37 17 38 38 25 12 -8 136 -79 275 -158z m940
135 c53 -116 61 -316 19 -448 -80 -249 -289 -428 -549 -472 l-38 -6 0 323 0
323 268 152 c147 84 272 153 278 153 6 0 16 -11 22 -25z"/>
<path d="M1080 1810 l0 -90 60 0 60 0 0 90 0 90 -60 0 -60 0 0 -90z"/>
<path d="M550 1315 l0 -55 95 0 95 0 0 55 0 55 -95 0 -95 0 0 -55z"/>
<path d="M1540 1315 l0 -55 95 0 95 0 0 55 0 55 -95 0 -95 0 0 -55z"/>
<path d="M2737 1923 c-4 -3 -7 -50 -7 -104 l0 -98 148 -3 147 -3 3 -473 2
-473 98 3 97 3 3 472 2 472 148 3 147 3 0 100 0 100 -391 3 c-215 1 -393 -1
-397 -5z"/>
<path d="M4455 1908 c-3 -13 -5 -59 -3 -103 l3 -80 147 -3 148 -3 2 -472 3
-472 97 -3 98 -3 2 473 3 473 150 5 150 5 0 100 0 100 -397 3 -398 2 -5 -22z"/>
<path d="M5371 1908 c-10 -30 -6 -157 6 -169 6 -6 48 -9 94 -7 l84 3 0 95 0
95 -88 3 c-83 3 -88 2 -96 -20z"/>
<path d="M3642 1303 c3 -318 4 -329 26 -370 60 -114 132 -154 287 -160 55 -3
120 0 145 6 28 6 49 6 54 0 6 -5 52 -9 103 -9 l93 0 0 430 0 430 -95 0 -95 0
0 -289 c0 -283 0 -289 -23 -322 -13 -19 -38 -39 -57 -46 -81 -28 -206 -6 -233
41 -8 15 -14 110 -17 316 l-5 295 -93 3 -93 3 3 -328z"/>
<path d="M5370 1610 c-1 -11 -1 -159 -1 -330 0 -170 0 -355 1 -410 l0 -100 95
0 95 0 0 430 0 430 -95 0 c-88 0 -95 -1 -95 -20z"/>
<path d="M5730 1200 l0 -430 95 0 95 0 0 283 c0 317 4 336 70 370 50 26 177
20 217 -9 48 -35 52 -65 52 -367 l1 -278 93 3 92 3 5 295 c6 337 6 340 82 361
62 16 162 8 195 -17 51 -38 53 -48 53 -356 l0 -288 96 0 95 0 -3 323 c-3 304
-4 325 -24 368 -27 59 -84 115 -143 142 -40 18 -65 21 -181 22 l-135 0 -65
-36 -65 -35 -34 23 c-73 50 -221 68 -343 42 -39 -9 -53 -9 -56 0 -2 7 -37 11
-98 11 l-94 0 0 -430z"/>
<path d="M7307 1616 c-97 -36 -162 -108 -193 -214 -22 -76 -16 -399 9 -455 27
-62 71 -111 129 -143 l53 -29 258 -3 257 -3 0 90 0 91 -215 0 c-249 0 -276 6
-301 66 -8 20 -14 50 -12 68 l3 31 278 3 279 2 -4 143 c-3 128 -6 148 -29 197
-30 64 -74 112 -133 143 -36 19 -59 22 -191 24 -109 2 -160 -1 -188 -11z m279
-192 c36 -17 74 -82 74 -127 l0 -27 -180 0 -180 0 0 33 c0 43 28 93 65 117 39
26 170 28 221 4z"/>
</g>
</svg>
