<svg width="138" height="47" viewBox="0 0 138 47" fill="none" xmlns="http://www.w3.org/2000/svg">
<path d="M10.6219 6.38118L0.854492 12.028V23.5315V35.035L4.6917 37.2378C6.80217 38.4616 11.215 40.9966 14.5115 42.8847C17.7905 44.7728 20.5812 46.3287 20.7033 46.3287C20.808 46.3287 22.2557 45.5595 23.8777 44.6154C25.5173 43.6714 29.8254 41.1889 33.4708 39.091C37.1161 36.9931 40.2033 35.1924 40.3254 35.0875C40.4824 34.9651 40.5347 32.5001 40.4998 23.4616L40.4475 12.0106L33.3836 7.91964C21.9766 1.31125 20.9126 0.699363 20.651 0.699363C20.5115 0.716845 15.994 3.26929 10.6219 6.38118ZM29.4243 8.04202L37.4126 12.6399L35.7905 13.584C34.901 14.1085 33.6975 14.8078 33.1045 15.1399L32.0405 15.7343L31.5522 15.0175C30.4882 13.4791 28.1336 11.6959 26.0057 10.8043C22.6917 9.38817 18.5929 9.40566 15.2789 10.8217C13.1859 11.6959 11.7033 12.8322 9.99403 14.8078L9.20914 15.7343L6.61031 14.2133C4.06379 12.7273 4.02891 12.6924 4.43007 12.4301C4.81379 12.1504 7.18589 10.7868 16.2731 5.54202C20.2847 3.23433 20.7557 3.00706 21.0696 3.19936C21.2789 3.32174 25.0289 5.50706 29.4243 8.04202ZM23.5987 12.1679C25.465 12.6399 27.4184 13.7763 28.901 15.2623C29.6684 16.0315 30.2091 16.7133 30.1219 16.7833C29.7033 17.2029 20.7905 22.2203 20.5812 22.1679C20.0405 22.0455 11.2324 16.8532 11.2324 16.6609C11.2324 16.2938 13.5522 14.1085 14.5987 13.4791C17.337 11.8707 20.5289 11.3987 23.5987 12.1679ZM5.68589 16.0665L8.2324 17.5175L7.83124 18.514C6.76728 21.1015 6.61031 24.7553 7.39519 27.3602C9.24403 33.3567 14.4068 37.2378 20.5638 37.2728C22.744 37.2903 23.9998 37.063 25.744 36.3637C30.0347 34.6154 33.0347 31.1189 34.0987 26.6609C34.4126 25.3497 34.4475 24.7203 34.3952 22.9022C34.308 20.8217 34.1161 19.8777 33.2964 17.7973C33.1917 17.5175 34.0115 16.9756 37.4475 15.035L38.4417 14.4756V24.1609V33.8287L34.2033 36.2588C31.8836 37.605 28.2382 39.7029 26.1103 40.9441C23.9824 42.1679 22.1161 43.2343 21.9766 43.2868C21.7324 43.3742 21.6975 43.1294 21.6975 41.2763V39.1609H20.651H19.6045V41.2588C19.6045 42.4127 19.5522 43.3567 19.4998 43.3567C19.3777 43.3567 4.51728 34.7903 3.5231 34.1609L2.86031 33.7413V24.1085C2.86031 18.8113 2.93007 14.5106 3.01728 14.5455C3.08705 14.563 4.29054 15.2623 5.68589 16.0665ZM14.8952 21.3812L19.5173 24.056L19.5696 29.6154L19.6045 35.1924L18.6277 35.07C18.0871 35.0175 17.0754 34.7203 16.3777 34.4231C11.7731 32.5001 8.96496 28.3043 8.96496 23.3392C8.96496 21.6609 9.71496 18.7064 10.151 18.7064C10.2208 18.7064 12.3487 19.9127 14.8952 21.3812ZM31.7964 19.8777C33.7498 26.014 30.5057 32.5175 24.4533 34.6329C23.651 34.9127 22.7091 35.1399 22.3429 35.1399H21.6975L21.7324 29.6154L21.7847 24.0735L26.4068 21.4161C28.9533 19.9476 31.1161 18.7238 31.2208 18.7238C31.3254 18.7064 31.587 19.2308 31.7964 19.8777Z" fill="black"/>
<path d="M19.6045 14.8601V16.6084H20.651H21.6975V14.8601V13.1119H20.651H19.6045V14.8601Z" fill="black"/>
<path d="M10.3604 23.6014V24.6504H12.0173H13.6743V23.6014V22.5525H12.0173H10.3604V23.6014Z" fill="black"/>
<path d="M27.6627 23.549L27.715 24.563L29.2673 24.6154C31.0464 24.6679 31.1162 24.6329 31.1162 23.3741V22.5525H29.372H27.6104L27.6627 23.549Z" fill="black"/>
<path d="M48.2791 12.9895C48.2268 13.1294 48.2093 13.9336 48.2442 14.7902L48.2965 16.3462L50.8779 16.3986L53.4419 16.4511V24.7378V33.042H55.2733H57.1047V24.7378V16.4336H59.721H62.3373V14.5979V12.7623H55.3605C49.7093 12.7623 48.3489 12.8147 48.2791 12.9895Z" fill="#F28F3B"/>
<path d="M78.3838 14.5979V16.4161L80.9652 16.4686L83.5291 16.521L83.5815 24.7728L83.6163 33.042H85.4477H87.2791V24.7378V16.4336H89.8954H92.5291L92.4768 14.6329L92.4245 12.8497L85.4129 12.7972L78.3838 12.7623V14.5979Z" fill="black"/>
<path d="M94.3255 12.9895C94.2732 13.1294 94.2557 13.8986 94.2906 14.7028L94.3429 16.1713L96.0522 16.2238L97.7441 16.2762V14.5105V12.7623H96.0871C94.8487 12.7623 94.3953 12.8322 94.3255 12.9895Z" fill="black"/>
<path d="M64.1163 23.549C64.1686 28.9511 64.1861 29.1259 64.5872 30.0175C64.814 30.5245 65.3547 31.2763 65.8256 31.7133C67.0988 32.9022 67.6919 33.0245 72.5407 33.0245H76.6395V31.2763C76.657 30.3322 76.657 27.098 76.657 24.1259C76.657 21.1364 76.657 18.549 76.6395 18.3567C76.6395 18.0245 76.5175 18.0071 74.8954 18.0071H73.1512V23.077C73.1512 26.4861 73.0814 28.2693 72.9593 28.5665C72.6279 29.3008 71.7384 29.5805 70.0814 29.5105C68.7558 29.4581 68.5814 29.4057 68.1454 28.9686L67.657 28.4966L67.6047 23.2518L67.5523 18.0071H65.8082H64.064L64.1163 23.549Z" fill="#F28F3B"/>
<path d="M94.2559 25.5245V33.042H96H97.7442V25.5245V18.007H96H94.2559V25.5245Z" fill="black"/>
<path d="M100.709 18.3916C100.692 18.7763 100.692 27.535 100.709 31.2413V33.042H102.349H104.006L104.058 28.007C104.111 23.6714 104.145 22.9196 104.407 22.4476C104.791 21.7308 105.593 21.4161 106.988 21.4161C107.616 21.4161 108.384 21.521 108.698 21.6609C109.744 22.0979 109.779 22.3427 109.779 27.9721V33.042H111.523H113.268V28.1469C113.268 22.7972 113.337 22.3252 114.227 21.7483C114.942 21.2937 117.157 21.2937 117.977 21.7832C118.936 22.3427 119.006 22.7448 119.006 28.1818L119.023 33.042H120.698H122.355L122.302 27.3077C122.25 21.7133 122.25 21.5735 121.849 20.8042C121.291 19.7378 120.68 19.1084 119.634 18.5665C118.814 18.1119 118.64 18.0944 116.233 18.0944H113.704L112.605 18.6888C111.576 19.2483 111.506 19.2658 111.192 18.986C110.477 18.3392 109.151 18.007 107.285 18.007C106.308 18.007 105.227 18.0769 104.895 18.1818C104.512 18.2867 104.233 18.2867 104.128 18.1818C104.023 18.0769 103.221 18.007 102.331 18.007C100.762 18.007 100.709 18.0245 100.709 18.3916Z" fill="black"/>
<path d="M127.657 18.4266C126.541 18.9336 125.424 20.1923 124.953 21.4336C124.657 22.2727 124.604 22.7972 124.604 25.5944C124.604 29.2657 124.779 30.1224 125.756 31.2587C126.087 31.6608 126.75 32.2028 127.186 32.4825L128.006 32.9546L132.593 33.007L137.18 33.0594L137.128 31.4336L137.075 29.8077L133.011 29.7203L128.93 29.6329L128.511 29.1434C128.198 28.7587 128.093 28.4441 128.093 27.7797V26.9231H132.889H137.686V24.5629C137.686 22.6399 137.616 22.0455 137.337 21.2762C136.866 20.035 135.889 18.9336 134.825 18.4266C134.006 18.042 133.709 18.007 131.232 18.007C128.756 18.007 128.459 18.042 127.657 18.4266ZM133.221 21.7483C133.761 22.0979 134.18 22.8671 134.232 23.6364L134.285 24.2133L131.267 24.2657C127.884 24.3182 127.884 24.3182 128.232 23.0944C128.459 22.3427 129.052 21.7308 129.767 21.5035C130.552 21.2587 132.715 21.3986 133.221 21.7483Z" fill="black"/>
</svg>
