<svg width="28" height="28" viewBox="0 0 28 28" fill="none" xmlns="http://www.w3.org/2000/svg">
<path d="M24.9945 24.3457H3.00558C1.46685 24.3457 0.214844 23.0937 0.214844 21.5549V6.44515C0.214844 4.90642 1.46685 3.65442 3.00558 3.65442H24.9945C26.5332 3.65442 27.7852 4.90642 27.7852 6.44515V21.5549C27.7852 23.094 26.5332 24.3457 24.9945 24.3457ZM3.00558 5.49244C2.48021 5.49244 2.05287 5.92009 2.05287 6.44515V21.5549C2.05287 22.0803 2.48021 22.5077 3.00558 22.5077H24.9945C25.5199 22.5077 25.9472 22.08 25.9472 21.5549V6.44515C25.9472 5.91978 25.5195 5.49244 24.9945 5.49244H3.00558Z" fill="#CCCCCC"/>
<path d="M14 17.1943C12.3433 17.1943 10.7531 16.4922 9.63714 15.268L0.978516 5.76727L2.33712 4.52905L10.9958 14.0295C11.7754 14.8848 12.8424 15.3563 14 15.3563C15.1577 15.3563 16.2246 14.8851 17.0046 14.0295L25.6635 4.52905L27.0218 5.76727L18.3626 15.2677C17.2469 16.4922 15.6567 17.1943 14 17.1943Z" fill="#CCCCCC"/>
<path d="M9.45033 13.763L1.02832 22.228L2.3313 23.5244L10.7533 15.0594L9.45033 13.763Z" fill="#CCCCCC"/>
<path d="M18.5507 13.7628L17.2476 15.0592L25.6696 23.5254L26.9727 22.229L18.5507 13.7628Z" fill="#CCCCCC"/>
</svg>
