<svg width="131" height="131" viewBox="0 0 131 131" fill="none" xmlns="http://www.w3.org/2000/svg">
<circle cx="65.5" cy="65.5" r="65.5" fill="#BBBBBB"/>
<g clip-path="url(#clip0_195_12)">
<path d="M57.6501 3.06924C46.7584 4.41844 36.7498 8.46603 27.7225 15.163C24.0429 17.9104 17.9102 24.0431 15.1627 27.7227C8.39218 36.8482 4.39365 46.8323 3.04446 57.8957C2.62743 61.5263 2.62743 69.4742 3.04446 73.1048C4.39365 84.1682 8.39218 94.1523 15.1627 103.278C17.9102 106.957 24.0429 113.09 27.7225 115.838C36.848 122.608 46.832 126.607 57.8954 127.956C61.526 128.373 69.474 128.373 73.1046 127.956C84.168 126.607 94.152 122.608 103.278 115.838C106.957 113.09 113.09 106.957 115.837 103.278C122.608 94.1523 126.606 84.1682 127.956 73.1048C128.373 69.4742 128.373 61.5263 127.956 57.8957C126.606 46.8323 122.608 36.8482 115.837 27.7227C113.09 24.0431 106.957 17.9104 103.278 15.163C94.152 8.39244 84.168 4.39391 73.1046 3.04472C69.5966 2.62769 61.1335 2.65222 57.6501 3.06924ZM71.7554 30.7646C78.7221 32.8497 84.3397 38.4673 86.4984 45.5076C87.1362 47.5437 87.1853 48.0343 87.1853 51.763C87.1853 55.4917 87.1362 55.9823 86.4984 58.0183C84.3397 65.0342 78.7712 70.6027 71.7554 72.7614C69.7193 73.3992 69.2287 73.4482 65.5 73.4482C61.7713 73.4482 61.2807 73.3992 59.2446 72.7614C52.2288 70.6027 46.6603 65.0342 44.5016 58.0183C43.8638 55.9823 43.8147 55.4917 43.8147 51.763C43.8147 48.0343 43.8638 47.5437 44.5016 45.5076C46.8566 37.7804 53.0383 32.1138 61.109 30.2985C63.6847 29.7097 69.0079 29.9551 71.7554 30.7646ZM71.8044 74.4785C86.6456 76.6618 99.4752 86.3515 105.608 99.9906L106.712 102.419L105.044 104.087C96.3843 112.894 84.4869 118.855 72.5404 120.327C68.7381 120.793 62.2619 120.793 58.4596 120.327C46.5131 118.855 34.6157 112.894 25.9563 104.087L24.2882 102.419L25.3921 99.9906C27.6244 95.0354 30.4454 90.9878 34.4685 86.9647C41.2881 80.1697 49.604 75.9259 58.9993 74.4785C62.0657 73.9879 68.6399 73.9879 71.8044 74.4785Z" fill="#EEEEEE"/>
</g>
<defs>
<clipPath id="clip0_195_12">
<rect width="125.598" height="125.598" fill="white" transform="translate(2.70102 2.70117)"/>
</clipPath>
</defs>
</svg>
