<svg width="36" height="36" viewBox="0 0 36 36" fill="none" xmlns="http://www.w3.org/2000/svg">
<path d="M15.75 0.105469C12.6281 0.492188 9.75937 1.65234 7.17188 3.57188C6.11719 4.35938 4.35938 6.11719 3.57187 7.17188C1.63125 9.7875 0.485156 12.6492 0.0984375 15.8203C-0.0210937 16.8609 -0.0210937 19.1391 0.0984375 20.1797C0.485156 23.3508 1.63125 26.2125 3.57187 28.8281C4.35938 29.8828 6.11719 31.6406 7.17188 32.4281C9.7875 34.3688 12.6492 35.5148 15.8203 35.9016C16.8609 36.0211 19.1391 36.0211 20.1797 35.9016C23.3508 35.5148 26.2125 34.3688 28.8281 32.4281C29.8828 31.6406 31.6406 29.8828 32.4281 28.8281C34.3687 26.2125 35.5148 23.3508 35.9016 20.1797C36.0211 19.1391 36.0211 16.8609 35.9016 15.8203C35.5148 12.6492 34.3687 9.7875 32.4281 7.17188C31.6406 6.11719 29.8828 4.35938 28.8281 3.57188C26.2125 1.63125 23.3508 0.485157 20.1797 0.0984383C19.1742 -0.0210915 16.7484 -0.014061 15.75 0.105469ZM19.793 8.04375C21.7898 8.64141 23.4 10.2516 24.0187 12.2695C24.2016 12.8531 24.2156 12.9938 24.2156 14.0625C24.2156 15.1313 24.2016 15.2719 24.0187 15.8555C23.4 17.8664 21.8039 19.4625 19.793 20.0813C19.2094 20.2641 19.0688 20.2781 18 20.2781C16.9312 20.2781 16.7906 20.2641 16.207 20.0813C14.1961 19.4625 12.6 17.8664 11.9812 15.8555C11.7984 15.2719 11.7844 15.1313 11.7844 14.0625C11.7844 12.9938 11.7984 12.8531 11.9812 12.2695C12.6562 10.0547 14.4281 8.43047 16.7414 7.91016C17.4797 7.74141 19.0055 7.81172 19.793 8.04375ZM19.807 20.5734C24.0609 21.1992 27.7383 23.9766 29.4961 27.8859L29.8125 28.582L29.3344 29.0602C26.8523 31.5844 23.4422 33.293 20.018 33.7148C18.9281 33.8484 17.0719 33.8484 15.982 33.7148C12.5578 33.293 9.14766 31.5844 6.66562 29.0602L6.1875 28.582L6.50391 27.8859C7.14375 26.4656 7.95234 25.3055 9.10547 24.1523C11.0602 22.2047 13.4437 20.9883 16.1367 20.5734C17.0156 20.4328 18.9 20.4328 19.807 20.5734Z" fill="white"/>
</svg>
