<?xml version="1.0" standalone="no"?>
<!DOCTYPE svg PUBLIC "-//W3C//DTD SVG 20010904//EN"
 "http://www.w3.org/TR/2001/REC-SVG-20010904/DTD/svg10.dtd">
<svg version="1.0" xmlns="http://www.w3.org/2000/svg"
 width="512.000000pt" height="512.000000pt" viewBox="0 0 512.000000 512.000000"
 preserveAspectRatio="xMidYMid meet">
<metadata>
Created by potrace 1.16, written by Peter Selinger 2001-2019
</metadata>
<g transform="translate(0.000000,512.000000) scale(0.100000,-0.100000)"
fill="#187BCD" stroke="none">
<path d="M290 5096 c0 -14 -17 -40 -45 -68 l-45 -45 0 -2423 0 -2423 45 -45
c28 -28 45 -54 45 -68 l0 -24 610 0 610 0 0 29 c0 21 6 32 20 36 26 8 70 62
70 85 0 30 -58 88 -98 100 -23 6 -237 10 -564 10 l-528 0 0 2300 0 2300 528 0
c327 0 541 4 564 10 40 12 98 70 98 100 0 23 -44 77 -70 85 -14 4 -20 15 -20
36 l0 29 -610 0 -610 0 0 -24z"/>
<path d="M872 4450 c-18 -11 -41 -34 -52 -52 -20 -33 -20 -55 -20 -1838 0
-1783 0 -1805 20 -1838 11 -18 34 -41 52 -52 32 -19 52 -20 859 -20 l826 0 33
23 c18 12 43 35 54 50 l21 28 0 1809 0 1809 -21 28 c-11 15 -36 38 -54 51
l-33 22 -826 0 c-807 0 -827 -1 -859 -20z m1578 -1890 l0 -1700 -720 0 -720 0
0 1700 0 1700 720 0 720 0 0 -1700z"/>
<path d="M4246 3159 c-14 -11 -33 -33 -41 -48 -12 -25 -12 -31 5 -57 10 -16
75 -85 144 -154 l126 -125 0 -52 0 -53 -557 0 c-307 0 -576 -5 -598 -10 -45
-10 -105 -67 -105 -100 0 -33 60 -90 105 -100 22 -5 291 -10 598 -10 l557 0 0
-53 0 -52 -131 -130 c-72 -72 -137 -142 -144 -156 -13 -24 -12 -30 8 -60 33
-49 67 -66 104 -50 17 7 157 139 311 295 258 259 282 285 282 316 0 31 -24 58
-293 327 -314 315 -316 316 -371 272z"/>
</g>
</svg>
